<svg width="44" height="13" viewBox="0 0 44 13" fill="none" xmlns="http://www.w3.org/2000/svg">
<path d="M0.12 12.0906V0.570637H1.632L5.808 9.23464L9.96 0.570637H11.488V12.0826H9.904V4.20264L6.184 12.0906H5.424L1.696 4.20264V12.0906H0.12ZM13.7614 12.0906V0.570637H21.1214V2.14664H15.4334V5.37864H20.1614V6.95464H15.4334V10.5146H21.1214V12.0906H13.7614ZM23.0746 12.0906V0.570637H24.7706L30.4426 9.13064V0.570637H32.1386V12.0906H30.4426L24.7706 3.52264V12.0906H23.0746ZM38.9955 12.3306C38.0942 12.3306 37.2968 12.1466 36.6035 11.7786C35.9155 11.4053 35.3768 10.8853 34.9875 10.2186C34.5982 9.54664 34.4035 8.7573 34.4035 7.85064V0.578637L36.0995 0.570637V7.76264C36.0995 8.2533 36.1822 8.6853 36.3475 9.05864C36.5128 9.43197 36.7342 9.74397 37.0115 9.99464C37.2888 10.2453 37.5982 10.4346 37.9395 10.5626C38.2862 10.6906 38.6382 10.7546 38.9955 10.7546C39.3582 10.7546 39.7102 10.6906 40.0515 10.5626C40.3982 10.4293 40.7102 10.2373 40.9875 9.98664C41.2648 9.73597 41.4835 9.42397 41.6435 9.05064C41.8088 8.6773 41.8915 8.24797 41.8915 7.76264V0.570637H43.5875V7.85064C43.5875 8.75197 43.3928 9.53864 43.0035 10.2106C42.6142 10.8826 42.0728 11.4053 41.3795 11.7786C40.6915 12.1466 39.8968 12.3306 38.9955 12.3306Z" fill="white"/>
</svg>
