<svg width="195" height="46" viewBox="0 0 195 46" fill="none" xmlns="http://www.w3.org/2000/svg">
<path d="M8.63306 0.902039L8.75161 0.785934L8.86739 0.904804L11.0793 3.1757L11.1947 3.29423L11.0762 3.4097C6.7591 7.6158 4.29058 13.4366 4.29058 19.5166C4.29058 21.7709 4.62312 23.9961 5.27879 26.1318L5.28801 26.1613L5.29957 26.1908C7.6905 32.2921 12.7298 37.7421 18.4434 40.4107L18.4943 40.4326C21.1127 41.4642 23.8774 41.9871 26.7129 41.9871C29.5603 41.9871 32.33 41.4617 34.946 40.4258L34.996 40.4042C40.6984 37.7393 45.7328 32.2961 48.1263 26.2012L48.1376 26.1722L48.147 26.1416L48.147 26.1415C48.8027 24.0059 49.1352 21.7771 49.1352 19.5166C49.1352 13.432 46.6664 7.61156 42.3276 3.38914L42.209 3.27368L42.3245 3.15509L44.536 0.884548L44.6517 0.765797L44.7702 0.881664C49.7524 5.75114 52.5913 12.4665 52.5913 19.457C52.5913 33.7565 40.9827 45.3906 26.7129 45.3906C12.4431 45.3906 0.834517 33.7565 0.834517 19.457C0.834517 12.4753 3.66536 5.76719 8.63306 0.902039Z" fill="white" stroke="white" stroke-width="0.330967"/>
<path d="M26.7108 4.64419C18.508 4.64419 11.8338 11.3322 11.8338 19.5535C11.8338 27.7749 18.508 34.4629 26.7108 34.4629C34.9137 34.4629 41.5879 27.7749 41.5879 19.5535C41.5879 11.3322 34.9137 4.64419 26.7108 4.64419ZM26.7108 38.0942C16.5086 38.0942 8.20952 29.7768 8.20952 19.5535C8.20952 9.33061 16.5086 1.01286 26.7108 1.01286C36.9127 1.01286 45.2121 9.3306 45.2121 19.5535C45.2121 29.7768 36.9127 38.0942 26.7108 38.0942Z" fill="white" stroke="white" stroke-width="0.330967"/>
<path d="M69.6031 29.5202C66.4956 29.5202 64.1086 28.6083 62.4423 26.7843C60.7759 24.9603 59.9428 22.3594 59.9428 18.9817V4.86279H63.5232V19.387C63.5232 21.7064 64.0523 23.4741 65.1107 24.6901C66.1691 25.8835 67.6665 26.4803 69.6031 26.4803C71.5847 26.4803 73.1047 25.8835 74.163 24.6901C75.2214 23.4966 75.7506 21.7289 75.7506 19.387V4.86279H79.331V19.0493C79.331 22.382 78.4865 24.9603 76.7977 26.7843C75.1313 28.6083 72.7331 29.5202 69.6031 29.5202ZM82.3933 29.1825V26.7167L92.5603 13.3409L93.5736 14.7595H82.6973V11.956H95.9718V14.4218L85.8386 27.73L84.8591 26.3789H96.242V29.1825H82.3933ZM110.605 29.5202C108.871 29.5202 107.283 29.2162 105.842 28.6083C104.401 27.9777 103.151 27.0995 102.093 25.9736C101.034 24.8477 100.201 23.5191 99.5931 21.9879C99.0077 20.4567 98.7149 18.7678 98.7149 16.9213C98.7149 14.4893 99.2216 12.3388 100.235 10.4698C101.248 8.60081 102.644 7.14839 104.423 6.11255C106.225 5.05419 108.274 4.52502 110.571 4.52502C112.913 4.52502 114.973 5.05419 116.752 6.11255C118.531 7.14839 119.927 8.60081 120.94 10.4698C121.976 12.3388 122.494 14.5006 122.494 16.9551C122.494 18.779 122.19 20.4679 121.582 22.0217C120.997 23.5529 120.175 24.8815 119.116 26.0074C118.058 27.1108 116.797 27.9777 115.333 28.6083C113.892 29.2162 112.316 29.5202 110.605 29.5202ZM110.571 26.4803C112.192 26.4803 113.622 26.075 114.86 25.2643C116.099 24.4311 117.067 23.294 117.765 21.8528C118.486 20.4116 118.846 18.7565 118.846 16.8875C118.846 15.041 118.497 13.4197 117.799 12.0236C117.101 10.6049 116.133 9.5128 114.894 8.74718C113.656 7.95904 112.215 7.56498 110.571 7.56498C108.927 7.56498 107.486 7.95904 106.247 8.74718C105.031 9.5128 104.074 10.5937 103.376 11.9898C102.701 13.3859 102.363 15.0185 102.363 16.8875C102.363 18.779 102.712 20.4454 103.41 21.8866C104.108 23.3277 105.065 24.4536 106.281 25.2643C107.52 26.075 108.949 26.4803 110.571 26.4803ZM126.414 29.1825V11.956H129.758V16.0093H129.926V29.1825H126.414ZM138.033 29.1825V17.9346C138.033 16.7637 137.763 15.908 137.222 15.3675C136.682 14.8271 135.905 14.5569 134.892 14.5569C133.946 14.5569 133.09 14.7821 132.325 15.2324C131.582 15.6603 130.996 16.2683 130.568 17.0564C130.14 17.822 129.926 18.734 129.926 19.7924L129.487 15.7729C130.05 14.4893 130.895 13.476 132.021 12.7329C133.169 11.9898 134.453 11.6183 135.871 11.6183C137.583 11.6183 138.945 12.1137 139.958 13.1045C140.994 14.0953 141.512 15.4013 141.512 17.0226V29.1825H138.033ZM149.652 29.1825V17.9346C149.652 16.7637 149.371 15.908 148.808 15.3675C148.268 14.8271 147.491 14.5569 146.477 14.5569C145.554 14.5569 144.71 14.7821 143.944 15.2324C143.201 15.6603 142.604 16.2683 142.154 17.0564C141.726 17.822 141.512 18.734 141.512 19.7924L140.803 15.7729C141.388 14.4893 142.266 13.476 143.437 12.7329C144.631 11.9898 145.959 11.6183 147.423 11.6183C149.157 11.6183 150.542 12.1249 151.578 13.1382C152.614 14.129 153.132 15.4576 153.132 17.124V29.1825H149.652ZM168.325 29.1825C168.212 28.7546 168.133 28.2817 168.088 27.7638C168.066 27.2459 168.054 26.6154 168.054 25.8723H167.886V17.6644C167.886 16.561 167.604 15.7391 167.041 15.1987C166.501 14.6357 165.634 14.3542 164.44 14.3542C163.292 14.3542 162.369 14.5794 161.671 15.0298C160.995 15.4801 160.601 16.1219 160.488 16.9551H157.144C157.302 15.3338 158.034 14.039 159.34 13.0707C160.646 12.1024 162.391 11.6183 164.575 11.6183C166.827 11.6183 168.516 12.1474 169.642 13.2058C170.768 14.2416 171.331 15.7729 171.331 17.7995V25.8723C171.331 26.3902 171.365 26.9194 171.432 27.4598C171.5 28.0003 171.601 28.5745 171.736 29.1825H168.325ZM162.38 29.5202C160.623 29.5202 159.227 29.0924 158.192 28.2367C157.156 27.3585 156.638 26.1763 156.638 24.6901C156.638 23.1588 157.178 21.9541 158.259 21.0759C159.362 20.1752 160.939 19.5672 162.988 19.2519L168.662 18.3399V20.8057L163.528 21.6163C162.38 21.7965 161.513 22.1005 160.927 22.5283C160.365 22.9562 160.083 23.5754 160.083 24.3861C160.083 25.1742 160.342 25.771 160.86 26.1763C161.4 26.5591 162.177 26.7505 163.191 26.7505C164.542 26.7505 165.656 26.424 166.535 25.771C167.435 25.1179 167.886 24.296 167.886 23.3052L168.325 25.8047C167.919 26.9982 167.199 27.9214 166.163 28.5745C165.127 29.205 163.866 29.5202 162.38 29.5202ZM176.09 29.1825V11.956H179.434V16.0093H179.603V29.1825H176.09ZM188.317 29.1825V18.1035C188.317 16.91 188.013 16.0206 187.405 15.4351C186.82 14.8496 185.942 14.5569 184.771 14.5569C183.758 14.5569 182.857 14.7821 182.069 15.2324C181.303 15.6828 180.695 16.302 180.245 17.0902C179.817 17.8783 179.603 18.8128 179.603 19.8937L179.164 15.7729C179.727 14.4893 180.594 13.476 181.765 12.7329C182.936 11.9898 184.298 11.6183 185.852 11.6183C187.698 11.6183 189.151 12.1362 190.209 13.172C191.267 14.2078 191.797 15.5815 191.797 17.2928V29.1825H188.317Z" fill="white"/>
<path d="M61.3202 41.464V34.8141H62.2992V41.464H61.3202ZM63.6653 41.464V34.8141H64.8013L68.3294 40.5035L68.1078 40.5497V34.8141H69.0498V41.464H67.9138L64.3857 35.7747L64.6073 35.7285V41.464H63.6653ZM72.5359 41.464L70.033 34.8141H71.0674L73.2656 40.8729H73.0162L75.2144 34.8141H76.1934L73.6812 41.464H72.5359ZM77.1765 41.464V34.8141H78.1555V41.464H77.1765ZM77.6568 41.464V40.6605H81.7945V41.464H77.6568ZM77.6568 38.4254V37.6218H81.462V38.4254H77.6568ZM77.6568 35.6176V34.8141H81.7114V35.6176H77.6568ZM85.089 41.5471C84.2885 41.5471 83.6482 41.3563 83.1679 40.9745C82.6876 40.5928 82.4075 40.0478 82.3274 39.3397H83.2787C83.3342 39.8015 83.5189 40.1525 83.8329 40.3926C84.1469 40.6328 84.5718 40.7528 85.1075 40.7528C85.557 40.7528 85.8956 40.6697 86.1234 40.5035C86.3574 40.3372 86.4744 40.1002 86.4744 39.7923C86.4744 39.5152 86.3974 39.2966 86.2435 39.1366C86.0896 38.9703 85.8463 38.8348 85.5138 38.7302L84.3594 38.3607C83.7682 38.1699 83.3342 37.9297 83.0571 37.6403C82.78 37.3509 82.6415 36.9846 82.6415 36.5412C82.6415 36.1656 82.7338 35.8424 82.9185 35.5715C83.1094 35.3005 83.3742 35.0912 83.7128 34.9434C84.0576 34.7895 84.4579 34.7125 84.9135 34.7125C85.6154 34.7125 86.1758 34.8911 86.5945 35.2482C87.0193 35.5992 87.2625 36.0887 87.3241 36.7167H86.3728C86.2989 36.298 86.1388 35.9932 85.8925 35.8024C85.6462 35.6053 85.3076 35.5068 84.8766 35.5068C84.4702 35.5068 84.1531 35.5869 83.9253 35.7469C83.6974 35.907 83.5835 36.1318 83.5835 36.4212C83.5835 36.6551 83.6574 36.8522 83.8052 37.0123C83.9591 37.1662 84.2116 37.2986 84.5625 37.4094L85.7725 37.7973C86.3328 37.9759 86.7453 38.2191 87.0101 38.527C87.281 38.8348 87.4165 39.2228 87.4165 39.6907C87.4165 40.2818 87.2133 40.7405 86.8069 41.0669C86.4005 41.3871 85.8279 41.5471 85.089 41.5471ZM90.0818 41.464V35.6176H87.8375V34.8141H93.3052V35.6176H91.0609V41.464H90.0818ZM94.2865 41.464V34.8141H95.8012L98.0179 41.2239H97.5191L99.7173 34.8141H101.25V41.464H100.281V35.2113H100.428L98.2857 41.464H97.1959L95.0531 35.2667H95.2009V41.464H94.2865ZM102.621 41.464V34.8141H103.6V41.464H102.621ZM103.101 41.464V40.6605H107.239V41.464H103.101ZM103.101 38.4254V37.6218H106.906V38.4254H103.101ZM103.101 35.6176V34.8141H107.155V35.6176H103.101ZM108.474 41.464V34.8141H109.61L113.138 40.5035L112.917 40.5497V34.8141H113.859V41.464H112.723L109.195 35.7747L109.416 35.7285V41.464H108.474ZM117.086 41.464V35.6176H114.842V34.8141H120.31V35.6176H118.065V41.464H117.086ZM126.041 41.5564C125.579 41.5564 125.151 41.4733 124.757 41.307C124.363 41.1346 124.021 40.8975 123.732 40.5958C123.448 40.288 123.227 39.9247 123.067 39.506C122.907 39.0873 122.827 38.6286 122.827 38.1298C122.827 37.6311 122.904 37.1754 123.057 36.7629C123.218 36.3442 123.439 35.984 123.722 35.6823C124.012 35.3744 124.354 35.1374 124.748 34.9711C125.142 34.8049 125.57 34.7217 126.031 34.7217C126.549 34.7217 127.014 34.8264 127.426 35.0358C127.839 35.239 128.174 35.5284 128.433 35.904C128.698 36.2796 128.861 36.7167 128.922 37.2155H127.962C127.882 36.6921 127.669 36.2857 127.325 35.9963C126.986 35.7008 126.558 35.553 126.041 35.553C125.604 35.553 125.216 35.6607 124.877 35.8762C124.544 36.0856 124.286 36.3842 124.101 36.7721C123.916 37.1539 123.824 37.6065 123.824 38.1298C123.824 38.647 123.916 39.1027 124.101 39.4968C124.292 39.8847 124.554 40.1864 124.886 40.4019C125.219 40.6174 125.604 40.7251 126.041 40.7251C126.558 40.7251 126.989 40.5804 127.334 40.291C127.685 39.9955 127.897 39.586 127.971 39.0627H128.941C128.873 39.5676 128.707 40.0078 128.442 40.3834C128.177 40.7528 127.839 41.0422 127.426 41.2516C127.02 41.4548 126.558 41.5564 126.041 41.5564ZM132.914 41.5564C132.44 41.5564 132.006 41.4733 131.612 41.307C131.218 41.1346 130.876 40.8945 130.587 40.5866C130.298 40.2787 130.07 39.9155 129.904 39.4968C129.743 39.0781 129.663 38.6163 129.663 38.1114C129.663 37.4464 129.802 36.8583 130.079 36.3473C130.356 35.8362 130.738 35.4391 131.224 35.1558C131.717 34.8664 132.277 34.7217 132.905 34.7217C133.546 34.7217 134.109 34.8664 134.595 35.1558C135.082 35.4391 135.464 35.8362 135.741 36.3473C136.024 36.8583 136.166 37.4494 136.166 38.1206C136.166 38.6193 136.082 39.0811 135.916 39.506C135.756 39.9247 135.531 40.288 135.242 40.5958C134.953 40.8975 134.608 41.1346 134.207 41.307C133.813 41.4733 133.382 41.5564 132.914 41.5564ZM132.905 40.7251C133.349 40.7251 133.74 40.6143 134.078 40.3926C134.417 40.1648 134.682 39.8539 134.872 39.4598C135.07 39.0657 135.168 38.6132 135.168 38.1021C135.168 37.5972 135.073 37.1539 134.882 36.7721C134.691 36.3842 134.426 36.0856 134.087 35.8762C133.749 35.6607 133.355 35.553 132.905 35.553C132.456 35.553 132.062 35.6607 131.723 35.8762C131.391 36.0856 131.129 36.3811 130.938 36.7629C130.753 37.1447 130.661 37.5911 130.661 38.1021C130.661 38.6193 130.756 39.075 130.947 39.469C131.138 39.8631 131.4 40.171 131.732 40.3926C132.071 40.6143 132.462 40.7251 132.905 40.7251ZM137.246 41.464V34.8141H138.761L140.978 41.2239H140.479L142.677 34.8141H144.21V41.464H143.241V35.2113H143.388L141.246 41.464H140.156L138.013 35.2667H138.161V41.464H137.246ZM145.581 41.464V34.8141H148.397C148.878 34.8141 149.287 34.8942 149.626 35.0542C149.965 35.2143 150.223 35.4422 150.402 35.7377C150.586 36.0333 150.679 36.3842 150.679 36.7906C150.679 37.2032 150.586 37.5603 150.402 37.862C150.223 38.1575 149.961 38.3884 149.617 38.5547C149.278 38.7209 148.872 38.8041 148.397 38.8041H146.329V37.9913H148.351C148.788 37.9913 149.121 37.8866 149.349 37.6773C149.583 37.4679 149.7 37.1754 149.7 36.7998C149.7 36.4181 149.586 36.1256 149.358 35.9224C149.13 35.7192 148.795 35.6176 148.351 35.6176H146.56V41.464H145.581ZM150.559 41.464L153.062 34.8141H153.912L151.52 41.464H150.559ZM155.704 41.464L153.312 34.8141H154.207L156.72 41.464H155.704ZM151.825 38.8133H155.39V39.6261H151.825V38.8133ZM157.703 41.464V34.8141H158.839L162.367 40.5035L162.145 40.5497V34.8141H163.087V41.464H161.951L158.423 35.7747L158.645 35.7285V41.464H157.703ZM166.463 41.464V38.5639L163.96 34.8141H165.142L167.257 38.1206H166.749L168.864 34.8141H169.945L167.442 38.5639V41.464H166.463Z" fill="white"/>
</svg>
